<?xml version="1.0" encoding="utf-8"?>
<!-- Generator: Adobe Illustrator 22.1.0, SVG Export Plug-In . SVG Version: 6.00 Build 0)  -->
<svg version="1.1" id="1_53" xmlns="http://www.w3.org/2000/svg" xmlns:xlink="http://www.w3.org/1999/xlink" x="0px" y="0px"
	 viewBox="0 0 1000 1333.136" enable-background="new 0 0 1000 1333.136" xml:space="preserve">
<polygon id="104" fill="none" class="baronnie" stroke="#000000" stroke-width="2" stroke-miterlimit="10" points="560.752,326.237 
	556.223,341.088 542.027,361.588 515.223,377.538 494.825,342.183 535.902,324.167 "/>
<polygon id="109" fill="none" class="baronnie" stroke="#000000" stroke-width="2" stroke-miterlimit="10" points="560.752,326.237 
	556.223,341.088 542.027,361.588 565.65,377.538 594.523,373.164 609.397,362.664 609.397,331.088 605.723,324.167 "/>
<polygon id="110" fill="none" class="baronnie" stroke="#000000" stroke-width="2" stroke-miterlimit="10" points="565.65,377.538 
	565.65,412.536 542.027,425.66 538.723,418.066 515.779,402.911 505.787,407.238 515.223,377.538 542.027,361.588 "/>
<polygon id="105" fill="none" class="baronnie" stroke="#000000" stroke-width="2" stroke-miterlimit="10" points="515.223,377.538 
	494.825,342.183 486.03,346.04 451.908,377.538 480.781,418.066 505.787,407.238 "/>
<polygon id="106" fill="none" class="baronnie" stroke="#000000" stroke-width="2" stroke-miterlimit="10" points="451.908,377.538 
	421.723,388.588 412.223,388.588 419.223,399.588 420.723,425.66 456.723,456.588 475.723,445.588 480.781,418.066 "/>
<polygon id="107" fill="none" class="baronnie" stroke="#000000" stroke-width="2" stroke-miterlimit="10" points="420.723,425.66 
	407.723,445.088 381.223,448.588 387.223,461.088 385.723,472.588 443.223,495.588 455.223,475.588 456.723,456.588 "/>
<polygon id="108" fill="none" class="baronnie" stroke="#000000" stroke-width="2" stroke-miterlimit="10" points="443.223,495.588 
	433.223,504.588 438.223,516.088 429.223,527.588 408.723,540.088 362.223,509.088 381.223,492.588 385.723,472.588 "/>
<polygon id="112" fill="none" class="baronnie" stroke="#000000" stroke-width="2" stroke-miterlimit="10" points="443.223,495.588 
	480.781,518.088 505.787,512.088 521.223,512.588 521.223,491.088 505.787,470.588 491.223,451.588 475.723,445.588 
	456.723,456.588 455.223,475.588 "/>
<polygon id="111" fill="none" class="baronnie" stroke="#000000" stroke-width="2" stroke-miterlimit="10" points="475.723,445.588 
	480.781,418.066 515.779,402.911 538.723,418.066 542.027,425.66 539.223,460.625 521.223,470.588 505.787,470.588 491.223,451.588 
	"/>
<polygon id="117" fill="none" class="baronnie" stroke="#000000" stroke-width="2" stroke-miterlimit="10" points="565.65,412.536 
	593.723,425.66 600.723,472.588 578.723,481.838 560.752,469.088 539.223,460.625 542.027,425.66 "/>
<polygon id="124" fill="none" class="baronnie" stroke="#000000" stroke-width="2" stroke-miterlimit="10" points="593.723,425.66 
	609.397,428.588 621.223,414.588 643.223,439.088 658.223,445.588 660.723,466.588 635.723,476.588 600.723,472.588 "/>
<polygon id="128" fill="none" class="baronnie" stroke="#000000" stroke-width="2" stroke-miterlimit="10" points="658.223,445.588 
	667.223,428.088 678.223,420.588 693.723,423.588 710.723,433.088 720.723,445.588 715.723,447.187 716.223,460.625 
	705.223,476.588 684.745,471.987 660.723,466.588 "/>
<polygon id="129" fill="none" class="baronnie" stroke="#000000" stroke-width="2" stroke-miterlimit="10" points="705.223,476.588 
	712.723,495.588 718.223,515.588 700.223,533.088 678.723,526.588 669.723,525.088 658.223,497.588 637.223,495.588 
	635.723,476.588 660.723,466.588 "/>
<polygon id="137" fill="none" class="baronnie" stroke="#000000" stroke-width="2" stroke-miterlimit="10" points="663.223,527.088 
	668.473,540.338 669.723,560.088 635.723,575.588 596.723,572.588 598.973,563.088 613.973,555.088 615.223,545.088 
	633.223,512.588 642.463,508.588 650.973,502.649 "/>
<polygon id="125" fill="none" class="baronnie" stroke="#000000" stroke-width="2" stroke-miterlimit="10" points="635.723,476.588 
	637.223,495.588 632.473,502.001 627.223,509.088 618.223,528.588 605.723,545.088 583.723,523.088 565.65,514.588 578.723,481.838 
	600.723,472.588 "/>
<polygon id="115" fill="none" class="baronnie" stroke="#000000" stroke-width="2" stroke-miterlimit="10" points="605.723,324.167 
	660.723,321.088 665.223,345.088 660.723,364.588 660.723,372.588 627.223,388.088 604.233,366.31 609.397,362.664 609.397,331.088 
	"/>
<polygon id="122" fill="none" class="baronnie" stroke="#000000" stroke-width="2" stroke-miterlimit="10" points="718.223,328.088 
	716.9,350.852 715.723,371.088 680.723,391.588 660.723,372.588 660.723,364.588 665.223,345.088 660.723,321.088 "/>
<polygon id="116" fill="none" class="baronnie" stroke="#000000" stroke-width="2" stroke-miterlimit="10" points="604.233,366.31 
	627.223,388.088 633.223,396.088 621.223,414.588 609.397,428.588 593.723,425.66 565.65,412.536 565.65,377.538 594.523,373.164 
	"/>
<polygon id="123" fill="none" class="baronnie" stroke="#000000" stroke-width="2" stroke-miterlimit="10" points="680.723,391.588 
	680.723,410.588 678.223,420.588 667.223,428.088 658.223,445.588 643.223,439.088 621.223,414.588 633.223,396.088 
	627.223,388.088 660.723,372.588 "/>
<polygon id="126" fill="none" class="baronnie" stroke="#000000" stroke-width="2" stroke-miterlimit="10" points="718.223,328.088 
	764.723,328.088 770.223,334.088 770.223,344.588 780.723,372.588 771.223,388.088 753.223,393.625 739.223,388.088 
	715.723,371.088 "/>
<polygon id="130" fill="none" class="baronnie" stroke="#000000" stroke-width="2" stroke-miterlimit="10" points="764.723,328.088 
	806.223,328.088 823.723,350.852 821.223,361.588 826.723,372.588 836.223,375.088 826.223,388.088 800.473,400.588 
	783.223,388.088 769.114,388.737 780.723,372.588 770.223,344.588 770.223,334.088 "/>
<polygon id="133" fill="none" class="baronnie" stroke="#000000" stroke-width="2" stroke-miterlimit="10" points="806.223,328.088 
	823.223,328.088 839.223,333.588 858.223,350.852 867.723,361.588 883.223,372.588 887.223,391.588 867.223,380.209 
	858.223,375.088 836.223,375.088 826.723,372.588 821.223,361.588 823.723,350.852 "/>
<polygon id="127" fill="none" class="baronnie" stroke="#000000" stroke-width="2" stroke-miterlimit="10" points="734.723,432.088 
	737.223,418.066 739.223,388.088 715.723,371.088 680.723,391.588 680.723,410.588 678.223,420.588 693.723,423.588 
	710.723,433.088 720.723,445.588 "/>
<polygon id="131" fill="none" class="baronnie" stroke="#000000" stroke-width="2" stroke-miterlimit="10" points="797.223,425.66 
	789.723,436.75 760.723,431.205 754.723,436.75 748.223,431.205 734.723,432.088 737.223,418.066 739.223,388.088 753.223,393.625 
	769.114,388.737 783.223,388.088 800.473,400.588 802.723,417.063 "/>
<polygon id="134" fill="none" class="baronnie" stroke="#000000" stroke-width="2" stroke-miterlimit="10" points="887.223,391.588 
	895.223,418.066 883.723,412.536 866.223,420.588 855.223,440.588 840.723,436.75 815.723,425.66 797.223,425.66 802.723,417.063 
	800.473,400.588 826.223,388.088 836.223,375.088 858.223,375.088 "/>
<polygon id="136" fill="none" class="baronnie" stroke="#000000" stroke-width="2" stroke-miterlimit="10" points="895.223,418.066 
	895.223,433.088 887.223,474.588 846.223,488.088 850.723,476.588 846.223,466.588 846.223,443.088 840.723,436.75 855.223,440.588 
	866.223,420.588 883.723,412.536 "/>
<polygon id="151" fill="none" class="baronnie" stroke="#000000" stroke-width="2" stroke-miterlimit="10" points="887.223,474.588 
	887.223,488.088 891.223,502.088 903.223,512.588 887.223,526.588 852.223,510.088 836.223,510.088 800.473,528.588 
	797.223,506.338 806.223,508.588 817.723,495.588 846.223,488.088 "/>
<polygon id="135" fill="none" class="baronnie" stroke="#000000" stroke-width="2" stroke-miterlimit="10" points="754.723,436.75 
	791.723,463.088 791.723,478.588 780.723,488.088 784.223,506.338 797.223,506.338 806.223,508.588 817.723,495.588 
	846.223,488.088 850.723,476.588 846.223,466.588 846.223,443.088 840.723,436.75 815.723,425.66 797.223,425.66 789.723,436.75 
	760.723,431.205 "/>
<polygon id="132" fill="none" class="baronnie" stroke="#000000" stroke-width="2" stroke-miterlimit="10" points="784.223,506.338 
	764.723,512.588 750.723,512.588 739.223,512.588 718.223,515.588 712.723,495.588 705.223,476.588 716.223,460.625 
	715.723,447.187 720.723,445.588 734.723,432.088 748.223,431.205 754.723,436.75 791.723,463.088 791.723,478.588 780.723,488.088 
	"/>
<polygon id="118" fill="none" class="baronnie" stroke="#000000" stroke-width="2" stroke-miterlimit="10" points="505.787,470.588 
	521.223,470.588 539.223,460.625 560.752,469.088 578.723,481.838 565.65,514.588 553.31,510.588 521.223,512.588 521.223,491.088 
	"/>
<polygon id="119" fill="none" class="baronnie" stroke="#000000" stroke-width="2" stroke-miterlimit="10" points="565.65,514.588 
	583.723,523.088 605.723,545.088 607.927,549.588 592.723,562.139 535.719,586.588 521.223,572.588 500,563.088 497.223,550.588 
	508.875,528.588 521.223,512.588 553.31,510.588 "/>
<polygon id="113" fill="none" class="baronnie" stroke="#000000" stroke-width="2" stroke-miterlimit="10" points="521.223,512.588 
	505.787,512.088 480.781,518.088 443.223,495.588 433.223,504.588 438.223,516.088 446.502,525.088 471.223,540.088 
	483.566,562.588 500,563.088 497.223,550.588 508.875,528.588 "/>
<polygon id="114" fill="none" class="baronnie" stroke="#000000" stroke-width="2" stroke-miterlimit="10" points="438.223,516.088 
	429.223,527.588 408.723,540.088 415.223,552.588 415.723,575.588 423.473,584.588 443.223,589.088 451.908,567.588 
	483.566,562.588 471.223,540.088 446.502,525.088 "/>
<polygon id="121" fill="none" class="baronnie" stroke="#000000" stroke-width="2" stroke-miterlimit="10" points="423.473,584.588 
	429.223,600.088 423.473,617.088 412.223,632.088 446.502,666.037 456.723,654.088 468.723,647.088 461.723,627.088 
	461.723,608.588 443.223,589.088 "/>
<polygon id="120" fill="none" class="baronnie" stroke="#000000" stroke-width="2" stroke-miterlimit="10" points="535.719,586.588 
	518.223,612.588 492.723,628.088 468.723,647.088 461.723,627.088 461.723,608.588 443.223,589.088 451.908,567.588 
	483.566,562.588 500,563.088 521.223,572.588 "/>
<polygon id="309" fill="none" class="baronnie" stroke="#000000" stroke-width="2" stroke-miterlimit="10" points="535.902,324.167 
	399.723,328.088 392.223,375.088 381.223,397.449 412.223,388.588 421.723,388.588 451.908,377.538 486.03,346.04 494.825,342.183 
	"/>
<polygon id="308" fill="none" class="baronnie" stroke="#000000" stroke-width="2" stroke-miterlimit="10" points="399.723,328.088 
	332.723,331.088 342.223,360.857 338.723,393.625 381.223,397.449 392.223,375.088 "/>
<polygon id="307" fill="none" class="baronnie" stroke="#000000" stroke-width="2" stroke-miterlimit="10" points="332.723,331.088 
	296.223,331.088 272.223,338.088 274.223,402.911 338.723,393.625 342.223,360.857 "/>
<polygon id="100" fill="none" class="baronnie" stroke="#000000" stroke-width="2" stroke-miterlimit="10" points="274.223,402.911 
	274.223,425.66 299.723,431.205 310.723,440.588 345.223,447.187 381.223,448.588 366.223,425.66 364.193,395.917 338.723,393.625 
	"/>
<polygon id="102" fill="none" class="baronnie" stroke="#000000" stroke-width="2" stroke-miterlimit="10" points="412.223,388.588 
	381.223,397.449 364.193,395.917 366.223,425.66 381.223,448.588 407.723,445.088 420.723,425.66 419.223,399.588 "/>
<polygon id="103" fill="none" class="baronnie" stroke="#000000" stroke-width="2" stroke-miterlimit="10" points="381.223,448.588 
	387.223,461.088 385.723,472.588 381.223,492.588 362.223,509.088 325.723,487.607 335.723,456.588 345.223,447.187 "/>
<polygon id="101" fill="none" class="baronnie" stroke="#000000" stroke-width="2" stroke-miterlimit="10" points="274.223,425.66 
	270.223,440.588 276.223,456.588 276.223,474.588 284.723,474.588 325.723,487.607 335.723,456.588 345.223,447.187 
	310.723,440.588 299.723,431.205 "/>
<polygon id="300" fill="none" class="baronnie" stroke="#000000" stroke-width="2" stroke-miterlimit="10" points="276.223,474.588 
	272.223,488.088 276.223,497.588 278.723,514.588 288.723,514.588 298.223,518.088 307.723,518.088 325.723,499.838 
	329.997,490.122 325.723,487.607 284.723,474.588 "/>
<polygon id="301" fill="none" class="baronnie" stroke="#000000" stroke-width="2" stroke-miterlimit="10" points="329.997,490.122 
	325.723,499.838 307.723,518.088 318.86,528.588 325.723,548.588 352.223,544.088 369.223,528.588 367.473,512.588 362.223,509.088 
	"/>
<polygon id="303" fill="none" class="baronnie" stroke="#000000" stroke-width="2" stroke-miterlimit="10" points="408.723,540.088 
	367.473,512.588 369.223,528.588 352.223,544.088 325.723,548.588 317.723,562.588 342.223,572.588 342.223,586.588 
	335.723,600.588 347.223,604.838 366.223,596.088 379.223,575.588 387.223,570.088 405.223,566.588 415.223,552.588 "/>
<polygon id="305" fill="none" class="baronnie" stroke="#000000" stroke-width="2" stroke-miterlimit="10" points="387.223,627.588 
	402.723,629.588 412.223,632.088 423.473,617.088 429.223,600.088 423.473,584.588 415.723,575.588 415.223,552.588 
	405.223,566.588 387.223,570.088 379.223,575.588 366.223,596.088 "/>
<polygon id="306" fill="none" class="baronnie" stroke="#000000" stroke-width="2" stroke-miterlimit="10" points="387.223,627.588 
	366.223,596.088 347.223,604.838 335.723,600.588 332.723,604.838 325.723,609.088 332.723,618.088 332.723,632.088 
	350.223,650.088 369.223,635.588 "/>
<polygon id="307_1" fill="none" class="baronnie" stroke="#000000" stroke-width="2" stroke-miterlimit="10" points="350.223,650.088 
	345.223,653.588 332.723,676.088 317.723,672.088 307.223,663.088 298.723,650.088 283.223,637.588 280.723,623.088 301.11,620.088 
	325.723,609.088 332.723,618.088 332.723,632.088 "/>
<polygon id="304" fill="none" class="baronnie" stroke="#000000" stroke-width="2" stroke-miterlimit="10" points="280.723,552.588 
	283.223,566.088 280.723,579.113 283.223,589.088 283.223,611.088 280.723,623.088 301.11,620.088 325.723,609.088 335.723,600.588 
	342.223,586.588 342.223,572.588 317.723,562.588 "/>
<polygon id="302" fill="none" class="baronnie" stroke="#000000" stroke-width="2" stroke-miterlimit="10" points="278.723,514.588 
	278.723,524.088 280.723,552.588 317.723,562.588 325.723,548.588 318.86,528.588 307.723,518.088 298.223,518.088 288.723,514.588 
	"/>
<polygon id="eseldorf" fill="none" class="baronnie" stroke="#000000" stroke-width="2" stroke-miterlimit="10" points="412.223,632.088 
	387.223,627.588 369.223,635.588 350.223,650.088 345.223,653.588 332.723,676.088 359.723,673.588 402.723,700.588 
	446.502,666.037 "/>
<polygon id="1" fill="none" class="baronnie" stroke="#000000" stroke-width="2" stroke-miterlimit="10" points="254.723,335.588 
	237.723,346.588 226.223,385.588 261.723,407.838 266.223,391.588 259.723,359.838 261.723,348.088 "/>
<polygon id="2" fill="none" class="baronnie" stroke="#000000" stroke-width="2" stroke-miterlimit="10" points="226.223,385.588 
	220.723,397.449 199.223,414.588 204.723,431.205 215.723,440.588 262.223,456.633 262.223,428.588 266.223,421.107 
	261.723,407.838 "/>
<polygon id="3" fill="none" class="baronnie" stroke="#000000" stroke-width="2" stroke-miterlimit="10" points="199.223,414.588 
	168.723,440.588 154.723,474.588 176.973,490.122 204.223,481.838 204.223,456.588 215.723,440.588 204.723,431.205 "/>
<polygon id="4" fill="none" class="baronnie" stroke="#000000" stroke-width="2" stroke-miterlimit="10" points="262.223,456.633 
	215.723,440.588 204.223,456.588 204.223,481.838 235.223,499.838 240.723,485.588 "/>
<polygon id="5" fill="none" class="baronnie" stroke="#000000" stroke-width="2" stroke-miterlimit="10" points="154.723,474.588 
	139.723,535.588 154.723,546.588 167.723,543.088 176.723,521.588 176.973,490.122 "/>
<polygon id="6" fill="none" class="baronnie" stroke="#000000" stroke-width="2" stroke-miterlimit="10" points="235.223,499.838 
	204.223,481.838 176.973,490.122 176.723,521.588 167.723,543.088 189.723,538.588 206.723,552.588 210.223,525.088 "/>
<polygon id="7" fill="none" class="baronnie" stroke="#000000" stroke-width="2" stroke-miterlimit="10" points="139.723,535.588 
	128.223,552.588 97.223,575.588 103.223,584.588 118.473,589.088 143.723,584.588 161.723,589.088 167.723,543.088 154.723,546.588 
	"/>
<polygon id="8" fill="none" class="baronnie" stroke="#000000" stroke-width="2" stroke-miterlimit="10" points="206.723,552.588 
	189.723,538.588 167.723,543.088 161.723,589.088 170.723,592.338 172.223,598.588 204.223,584.588 201.473,571.088 "/>
<polygon id="17" fill="none" class="baronnie" stroke="#000000" stroke-width="2" stroke-miterlimit="10" points="223.223,575.588 
	204.223,584.588 172.223,598.588 161.723,614.088 158.348,625.312 161.723,632.088 184.223,656.088 193.723,650.088 
	228.723,642.588 235.223,618.088 246.223,609.088 246.223,596.088 "/>
<polygon id="16" fill="none" class="baronnie" stroke="#000000" stroke-width="2" stroke-miterlimit="10" points="223.223,575.588 
	215.723,568.588 212.223,558.713 219.723,535.588 217.723,527.088 256.223,552.588 270.223,551.338 272.509,586.634 
	278.723,596.088 274.223,613.088 246.223,596.088 "/>
<polygon id="15" fill="none" class="baronnie" stroke="#000000" stroke-width="2" stroke-miterlimit="10" points="262.223,478.138 
	246.223,498.088 238.723,501.588 238.723,508.588 217.723,527.088 256.223,552.588 270.223,551.338 270.223,540.088 
	266.223,533.088 268.223,515.363 "/>
<polygon id="18" fill="none" class="baronnie" stroke="#000000" stroke-width="2" stroke-miterlimit="10" points="274.223,613.088 
	246.223,596.088 246.223,609.088 235.223,618.088 228.723,642.588 241.223,650.088 270.223,642.588 278.723,645.088 
	272.223,632.088 "/>
<polygon id="23" fill="none" class="baronnie" stroke="#000000" stroke-width="2" stroke-miterlimit="10" points="278.723,645.088 
	270.223,642.588 241.223,650.088 246.223,656.088 237.723,687.588 266.223,709.588 291.223,700.588 302.223,693.088 
	296.723,676.088 289.223,658.588 "/>
<polygon id="19" fill="none" class="baronnie" stroke="#000000" stroke-width="2" stroke-miterlimit="10" points="246.223,656.088 
	241.223,650.088 228.723,642.588 199.223,648.91 199.223,670.588 191.723,683.088 206.723,697.588 222.723,700.588 237.723,687.588 
	"/>
<polygon id="12" fill="none" class="baronnie" stroke="#000000" stroke-width="2" stroke-miterlimit="10" points="193.723,650.088 
	193.723,661.088 185.223,679.588 179.723,685.088 179.723,694.588 137.223,672.338 121.723,676.088 132.473,660.588 
	129.223,636.088 161.723,632.088 184.223,656.088 "/>
<polygon id="9" fill="none" class="baronnie" stroke="#000000" stroke-width="2" stroke-miterlimit="10" points="97.223,575.588 78.723,596.088 
	73.723,613.088 79.223,647.088 105.223,639.588 112.223,632.088 118.473,589.088 103.223,584.588 "/>
<polygon id="10" fill="none" class="baronnie" stroke="#000000" stroke-width="2" stroke-miterlimit="10" points="118.473,589.088 
	112.223,632.088 128.723,632.088 129.223,636.088 161.723,632.088 158.348,625.312 161.723,614.088 172.223,598.588 
	170.723,592.338 161.723,589.088 143.723,584.588 "/>
<polygon id="11" fill="none" class="baronnie" stroke="#000000" stroke-width="2" stroke-miterlimit="10" points="79.223,647.088 76.223,686.088 
	96.098,686.088 121.723,676.088 132.473,660.588 129.223,636.088 128.723,632.088 112.223,632.088 105.223,639.588 "/>
<polygon id="13" fill="none" class="baronnie" stroke="#000000" stroke-width="2" stroke-miterlimit="10" points="179.723,694.588 
	137.223,672.338 121.723,676.088 96.098,686.088 76.223,686.088 69.223,712.088 83.223,734.088 112.223,738.088 121.723,725.588 
	146.223,715.588 161.723,716.088 172.223,709.588 "/>
<polygon id="14" fill="none" class="baronnie" stroke="#000000" stroke-width="2" stroke-miterlimit="10" points="69.223,712.088 60.223,735.588 
	44.223,764.588 48.723,779.588 59.223,785.088 65.223,775.588 76.223,771.588 81.223,758.588 96.098,746.088 112.223,738.088 
	83.223,734.088 "/>
<polygon id="22" fill="none" class="baronnie" stroke="#000000" stroke-width="2" stroke-miterlimit="10" points="118.473,742.088 
	112.223,748.588 100.723,748.588 83.723,774.588 69.223,785.088 101.223,791.588 132.473,814.588 137.223,791.088 137.223,772.088 
	"/>
<polygon id="21" fill="none" class="baronnie" stroke="#000000" stroke-width="2" stroke-miterlimit="10" points="154.723,725.088 
	142.223,731.088 129.223,731.088 118.473,742.088 137.223,772.088 137.223,791.088 149.223,791.088 167.723,782.588 
	179.723,775.588 176.973,748.588 "/>
<polygon id="20" fill="none" class="baronnie" stroke="#000000" stroke-width="2" stroke-miterlimit="10" points="191.723,683.088 
	191.723,694.588 185.223,700.588 188.473,705.213 179.723,709.588 167.723,725.088 154.723,725.088 176.973,748.588 
	188.723,748.588 202.285,736.088 212.223,698.62 206.723,697.588 "/>
<polygon id="24" fill="none" class="baronnie" stroke="#000000" stroke-width="2" stroke-miterlimit="10" points="237.723,687.588 
	222.723,700.588 212.223,698.62 202.285,736.088 235.223,752.588 262.223,732.588 266.223,709.588 "/>
<polygon id="25" fill="none" class="baronnie" stroke="#000000" stroke-width="2" stroke-miterlimit="10" points="235.223,752.588 
	237.723,775.088 232.723,785.088 199.223,796.588 167.723,782.588 179.723,775.588 176.973,748.588 188.723,748.588 
	202.285,736.088 "/>
<polygon id="26" fill="none" class="baronnie" stroke="#000000" stroke-width="2" stroke-miterlimit="10" points="199.223,796.588 
	199.223,831.088 183.473,843.088 161.723,849.588 157.723,838.588 132.473,814.588 137.223,791.088 149.223,791.088 
	167.723,782.588 "/>
<polygon id="27" fill="none" class="baronnie" stroke="#000000" stroke-width="2" stroke-miterlimit="10" points="296.723,676.088 
	302.223,693.088 293.969,698.716 298.096,709.588 311.473,709.588 322.223,715.838 338.473,715.838 362.223,700.588 
	362.223,692.588 356.473,690.588 350.223,683.088 311.473,681.088 302.223,674.588 "/>
<polygon id="28" fill="none" class="baronnie" stroke="#000000" stroke-width="2" stroke-miterlimit="10" points="322.223,715.838 
	311.473,709.588 298.096,709.588 293.969,698.716 291.223,700.588 266.223,709.588 262.223,732.588 272.223,742.088 
	292.223,752.588 317.723,742.088 "/>
<polygon id="32" fill="none" class="baronnie" stroke="#000000" stroke-width="2" stroke-miterlimit="10" points="384.223,703.088 
	362.223,692.588 362.223,700.588 338.473,715.838 322.223,715.838 317.723,742.088 345.223,758.088 356.473,756.088 
	377.723,752.588 377.723,725.652 384.223,714.088 "/>
<polygon id="36" fill="none" class="baronnie" stroke="#000000" stroke-width="2" stroke-miterlimit="10" points="454.223,738.088 
	433.223,730.088 426.723,734.088 384.223,703.088 384.223,714.088 377.723,725.652 377.723,752.588 402.723,769.588 
	424.723,772.588 438.223,758.088 "/>
<polygon id="141" fill="none" class="baronnie" stroke="#000000" stroke-width="2" stroke-miterlimit="10" points="669.723,560.088 
	635.723,575.588 627.223,574.935 609.397,592.338 621.223,623.088 627.223,634.088 650.973,639.088 660.723,642.588 
	665.223,632.088 676.973,592.338 "/>
<polyline id="138" fill="none" class="baronnie" stroke="#000000" stroke-width="2" stroke-miterlimit="10" points="627.223,634.088 
	606.704,637.474 575.712,642.588 569.973,656.088 547.723,663.338 527.789,607.088 544.223,592.338 576.223,592.338 
	582.723,584.588 596.723,572.588 627.223,574.935 609.397,592.338 627.223,634.088 "/>
<polygon id="139" fill="none" class="baronnie" stroke="#000000" stroke-width="2" stroke-miterlimit="10" points="527.789,607.088 
	524.223,617.963 512.494,630.088 489.471,636.088 476.473,656.088 468.723,656.088 477.223,666.037 483.566,689.588 
	524.223,695.213 542.255,686.088 539.223,672.338 547.723,663.338 "/>
<polygon id="140" fill="none" class="baronnie" stroke="#000000" stroke-width="2" stroke-miterlimit="10" points="468.723,656.088 
	458.563,671.588 438.223,676.088 420.723,692.588 412.223,705.213 429.223,720.088 440.473,720.088 464.285,728.088 
	482.223,720.088 477.223,703.088 483.566,689.588 477.223,666.037 "/>
<polygon id="41" fill="none" class="baronnie" stroke="#000000" stroke-width="2" stroke-miterlimit="10" points="481.223,742.088 
	454.223,738.088 438.223,758.088 463.723,778.338 477.223,775.088 483.566,772.588 514.723,785.088 508.223,761.588 "/>
<polygon id="43" fill="none" class="baronnie" stroke="#000000" stroke-width="2" stroke-miterlimit="10" points="544.223,846.088 
	539.723,825.088 525.723,796.588 514.723,785.088 483.566,772.588 477.223,775.088 476.473,807.588 483.566,826.588 
	521.223,838.694 "/>
<polygon id="49" fill="none" class="baronnie" stroke="#000000" stroke-width="2" stroke-miterlimit="10" points="544.223,846.088 
	544.223,858.088 541.223,872.088 510.348,876.588 477.223,866.088 477.223,852.088 483.566,826.588 "/>
<polygon id="44" fill="none" class="baronnie" stroke="#000000" stroke-width="2" stroke-miterlimit="10" points="477.223,866.088 
	454.887,872.713 418.223,883.588 418.223,828.588 425.223,828.588 446.502,811.588 461.723,814.588 476.473,807.588 
	483.566,826.588 477.223,852.088 "/>
<polygon id="42" fill="none" class="baronnie" stroke="#000000" stroke-width="2" stroke-miterlimit="10" points="477.223,775.088 
	463.723,778.338 438.223,758.088 424.723,772.588 429.223,801.088 425.223,828.588 446.502,811.588 461.723,814.588 
	476.473,807.588 "/>
<polygon id="37" fill="none" class="baronnie" stroke="#000000" stroke-width="2" stroke-miterlimit="10" points="424.723,772.588 
	402.723,769.588 377.723,752.588 356.473,756.088 359.223,785.088 350.973,800.588 366.223,812.588 372.723,826.588 
	418.223,828.588 425.223,828.588 429.223,801.088 "/>
<polygon id="33" fill="none" class="baronnie" stroke="#000000" stroke-width="2" stroke-miterlimit="10" points="356.473,756.088 
	345.223,758.088 317.723,742.088 292.223,752.588 284.723,790.588 307.723,807.588 336.223,802.588 345.723,796.588 
	350.973,800.588 359.223,785.088 "/>
<polygon id="38" fill="none" class="baronnie" stroke="#000000" stroke-width="2" stroke-miterlimit="10" points="347.723,856.088 
	359.223,846.088 366.473,828.588 366.223,812.588 350.973,800.588 345.723,796.588 336.223,802.588 307.723,807.588 
	307.723,823.588 298.223,832.088 315.473,838.088 332.348,858.588 "/>
<polygon id="45" fill="none" class="baronnie" stroke="#000000" stroke-width="2" stroke-miterlimit="10" points="418.223,897.588 
	418.223,883.588 418.223,828.588 372.723,826.588 366.223,812.588 366.473,828.588 359.223,846.088 347.723,856.088 
	384.223,883.588 387.223,902.088 "/>
<polygon id="29" fill="none" class="baronnie" stroke="#000000" stroke-width="2" stroke-miterlimit="10" points="292.223,752.588 
	272.223,742.088 262.223,732.588 235.223,752.588 237.723,775.088 232.723,785.088 243.973,796.588 262.223,796.588 
	284.723,790.588 "/>
<polygon id="34" fill="none" class="baronnie" stroke="#000000" stroke-width="2" stroke-miterlimit="10" points="284.723,790.588 
	262.223,796.588 243.973,796.588 243.973,821.588 234.254,854.088 262.223,858.588 276.223,839.088 298.223,832.088 
	307.723,823.588 307.723,807.588 "/>
<polygon id="30" fill="none" class="baronnie" stroke="#000000" stroke-width="2" stroke-miterlimit="10" points="243.973,796.588 
	232.723,785.088 199.223,796.588 199.223,831.088 218.973,849.588 218.973,862.088 225.223,857.338 234.254,854.088 
	243.973,821.588 "/>
<polygon id="31" fill="none" class="baronnie" stroke="#000000" stroke-width="2" stroke-miterlimit="10" points="218.973,862.088 
	218.973,849.588 199.223,831.088 183.473,843.088 161.723,849.588 183.473,883.588 199.223,876.588 "/>
<polygon id="35" fill="none" class="baronnie" stroke="#000000" stroke-width="2" stroke-miterlimit="10" points="262.223,858.588 
	234.254,854.088 218.973,862.088 199.223,876.588 183.473,883.588 206.723,907.088 235.223,910.588 251.223,893.088 "/>
<polygon id="39" fill="none" class="baronnie" stroke="#000000" stroke-width="2" stroke-miterlimit="10" points="332.348,858.588 
	315.473,838.088 298.223,832.088 276.223,839.088 262.223,858.588 251.223,893.088 270.988,895.088 284.723,906.588 
	302.223,896.588 322.223,876.588 "/>
<polygon id="46" fill="none" class="baronnie" stroke="#000000" stroke-width="2" stroke-miterlimit="10" points="387.223,902.088 
	384.223,883.588 347.723,856.088 332.348,858.588 322.223,876.588 302.223,896.588 328.096,914.088 350.973,921.088 
	366.223,918.088 "/>
<polygon id="47" fill="none" class="baronnie" stroke="#000000" stroke-width="2" stroke-miterlimit="10" points="350.973,921.088 
	353.723,934.588 347.723,948.088 325.723,960.588 293.969,940.838 301.11,935.088 293.969,914.588 284.723,906.588 302.223,896.588 
	328.096,914.088 "/>
<polygon id="40" fill="none" class="baronnie" stroke="#000000" stroke-width="2" stroke-miterlimit="10" points="293.969,940.838 
	301.11,935.088 293.969,914.588 284.723,906.588 270.988,895.088 251.223,893.088 235.223,910.588 206.723,907.088 218.973,919.088 
	251.223,940.838 253.916,948.088 275.223,952.088 "/>
<polygon id="48" fill="none" class="baronnie" stroke="#000000" stroke-width="2" stroke-miterlimit="10" points="325.723,960.588 
	293.969,940.838 275.223,952.088 253.916,948.088 262.473,984.088 284.723,1010.588 291.785,1002.088 322.223,980.088 "/>
<polygon id="55" fill="none" class="baronnie" stroke="#000000" stroke-width="2" stroke-miterlimit="10" points="541.223,872.088 
	510.348,876.588 500,914.088 510.348,926.088 524.723,931.088 553.31,944.588 542.255,931.088 544.223,896.588 "/>
<polygon id="50" fill="none" class="baronnie" stroke="#000000" stroke-width="2" stroke-miterlimit="10" points="510.348,876.588 
	477.223,866.088 418.223,883.588 418.223,897.588 440.473,902.088 470.723,922.588 500,914.088 "/>
<polygon id="51" fill="none" class="baronnie" stroke="#000000" stroke-width="2" stroke-miterlimit="10" points="470.723,922.588 
	464.285,952.088 435.723,970.588 418.223,967.588 406.223,948.588 412.223,921.088 387.223,902.088 418.223,897.588 
	440.473,902.088 "/>
<polygon id="52" fill="none" class="baronnie" stroke="#000000" stroke-width="2" stroke-miterlimit="10" points="387.223,902.088 
	366.223,918.088 350.973,921.088 353.723,934.588 347.723,948.088 377.723,964.088 395.223,960.588 406.223,948.588 
	412.223,921.088 "/>
<polygon id="53" fill="none" class="baronnie" stroke="#000000" stroke-width="2" stroke-miterlimit="10" points="377.723,964.088 
	347.723,948.088 325.723,960.588 322.223,980.088 347.723,1008.088 369.223,1008.088 377.723,982.088 "/>
<polygon id="54" fill="none" class="baronnie" stroke="#000000" stroke-width="2" stroke-miterlimit="10" points="322.223,980.088 
	291.785,1002.088 284.723,1010.588 319.223,1046.088 338.473,1050.088 350.973,1019.088 347.723,1008.088 "/>
<polygon id="59" fill="none" class="baronnie" stroke="#000000" stroke-width="2" stroke-miterlimit="10" points="402.723,1015.088 
	369.223,1008.088 347.723,1008.088 350.973,1019.088 338.473,1050.088 377.723,1071.088 402.723,1033.088 "/>
<polygon id="58" fill="none" class="baronnie" stroke="#000000" stroke-width="2" stroke-miterlimit="10" points="435.723,970.588 
	418.223,967.588 406.223,948.588 395.223,960.588 377.723,964.088 377.723,982.088 369.223,1008.088 402.723,1015.088 
	424.723,1015.088 440.473,1005.088 "/>
<polygon id="61" fill="none" class="baronnie" stroke="#000000" stroke-width="2" stroke-miterlimit="10" points="454.223,1085.088 
	450.973,1063.588 402.723,1033.088 377.723,1071.088 412.223,1085.088 "/>
<polygon id="60" fill="none" class="baronnie" stroke="#000000" stroke-width="2" stroke-miterlimit="10" points="461.723,1010.588 
	446.145,1003.588 440.473,1005.088 424.723,1015.088 402.723,1015.088 402.723,1033.088 450.973,1063.588 464.285,1046.588 "/>
<polygon id="57" fill="none" class="baronnie" stroke="#000000" stroke-width="2" stroke-miterlimit="10" points="497.223,969.088 
	464.285,952.088 435.723,970.588 440.473,1005.088 446.145,1003.588 461.723,1010.588 479.723,1010.588 491.723,994.588 "/>
<polygon id="56" fill="none" class="baronnie" stroke="#000000" stroke-width="2" stroke-miterlimit="10" points="526.654,933.088 
	510.348,926.088 500,914.088 470.723,922.588 464.285,952.088 497.223,969.088 524.223,964.088 "/>
<polygon id="62" fill="none" class="baronnie" stroke="#000000" stroke-width="2" stroke-miterlimit="10" points="553.31,944.588 
	526.654,933.088 524.223,964.088 535.719,975.713 551.223,998.088 563.223,992.588 572.723,994.588 576.223,985.088 
	563.223,965.588 "/>
<polygon id="65" fill="none" class="baronnie" stroke="#000000" stroke-width="2" stroke-miterlimit="10" points="572.723,994.588 
	563.223,992.588 551.223,998.088 546.223,1015.088 521.223,1028.588 514.723,1059.088 526.654,1063.588 544.223,1053.088 
	553.31,1056.588 560.723,1033.588 568.723,1028.088 576.223,1010.588 "/>
<polygon id="63" fill="none" class="baronnie" stroke="#000000" stroke-width="2" stroke-miterlimit="10" points="546.223,1015.088 
	551.223,998.088 535.719,975.713 524.223,964.088 497.223,969.088 491.723,994.588 479.723,1010.588 500,1022.088 521.223,1028.588 
	"/>
<polygon id="64" fill="none" class="baronnie" stroke="#000000" stroke-width="2" stroke-miterlimit="10" points="521.223,1028.588 500,1022.088 
	479.723,1010.588 461.723,1010.588 464.285,1046.588 482.223,1056.588 507.723,1063.588 514.723,1059.088 "/>
<polygon id="66" fill="none" class="baronnie" stroke="#000000" stroke-width="2" stroke-miterlimit="10" points="553.31,1056.588 
	544.223,1053.088 526.654,1063.588 514.723,1059.088 507.723,1063.588 482.223,1056.588 464.285,1046.588 450.973,1063.588 
	454.223,1085.088 510.348,1085.088 550.223,1099.588 551.223,1085.088 "/>
<polygon id="142" fill="none" class="baronnie" stroke="#000000" stroke-width="2" stroke-miterlimit="10" points="669.723,674.588 
	678.223,683.088 658.223,686.088 647.223,694.588 637.223,690.088 621.223,683.088 611.723,666.037 606.704,637.474 
	627.223,634.088 660.723,642.588 672.723,666.037 "/>
<polygon id="143" fill="none" class="baronnie" stroke="#000000" stroke-width="2" stroke-miterlimit="10" points="606.704,637.474 
	575.712,642.588 569.973,656.088 547.723,663.338 539.223,672.338 542.255,686.088 565.65,709.588 590.223,720.088 603.723,720.088 
	627.223,728.088 646.223,725.088 635.723,709.588 637.223,690.088 621.223,683.088 611.723,666.037 "/>
<polygon id="144" fill="none" class="baronnie" stroke="#000000" stroke-width="2" stroke-miterlimit="10" points="565.65,709.588 
	542.255,686.088 524.223,695.213 483.566,689.588 477.223,703.088 482.223,720.088 491.473,738.088 505.787,745.088 
	514.723,758.088 526.654,764.588 530.723,752.588 551.223,755.088 576.223,748.588 584.723,738.088 576.223,723.088 "/>
<polygon id="145" fill="none" class="baronnie" stroke="#000000" stroke-width="2" stroke-miterlimit="10" points="708.723,709.588 
	689.473,703.088 678.223,683.088 658.223,686.088 647.223,694.588 637.223,690.088 635.723,709.588 646.223,725.088 
	667.723,728.088 680.723,736.088 705.223,730.088 712.223,720.088 "/>
<polygon id="146" fill="none" class="baronnie" stroke="#000000" stroke-width="2" stroke-miterlimit="10" points="644.64,725.338 
	642.463,737.838 627.223,742.088 609.397,778.338 601.437,785.088 576.223,748.588 584.723,738.088 565.65,709.588 590.223,720.088 
	603.723,720.088 627.223,728.088 "/>
<polygon id="147" fill="none" class="baronnie" stroke="#000000" stroke-width="2" stroke-miterlimit="10" points="601.437,785.088 
	576.223,748.588 551.223,755.088 530.723,752.588 526.654,764.588 535.719,796.588 572.223,796.588 "/>
<polygon id="148" fill="none" class="baronnie" stroke="#000000" stroke-width="2" stroke-miterlimit="10" points="699.223,758.088 
	678.223,778.338 663.508,774.838 646.223,770.088 627.223,742.088 642.463,737.838 644.64,725.338 667.723,728.088 680.723,736.088 
	699.223,732.588 "/>
<polygon id="172" fill="none" class="baronnie" stroke="#000000" stroke-width="2" stroke-miterlimit="10" points="699.223,758.088 
	714.723,768.588 705.223,803.088 705.223,816.088 697.223,824.588 678.223,835.588 663.223,832.088 654.723,814.588 
	646.223,809.338 660.723,796.588 663.508,774.838 678.223,778.338 "/>
<polygon id="149" fill="none" class="baronnie" stroke="#000000" stroke-width="2" stroke-miterlimit="10" points="663.508,774.838 
	646.223,770.088 627.223,742.088 609.397,778.338 601.437,785.088 618.223,816.088 642.463,807.588 646.223,809.338 
	660.723,796.588 "/>
<polygon id="173" fill="none" class="baronnie" stroke="#000000" stroke-width="2" stroke-miterlimit="10" points="663.223,832.088 
	660.723,851.588 632.473,872.088 596.723,879.088 598.723,869.338 589.723,851.588 606.704,845.588 618.223,816.088 
	642.463,807.588 646.223,809.338 654.723,814.588 "/>
<polygon id="150" fill="none" class="baronnie" stroke="#000000" stroke-width="2" stroke-miterlimit="10" points="601.437,785.088 
	572.223,796.588 535.719,796.588 547.723,818.588 551.223,849.588 571.723,854.088 589.723,851.588 606.704,845.588 
	618.223,816.088 "/>
<polygon id="174" fill="none" class="baronnie" stroke="#000000" stroke-width="2" stroke-miterlimit="10" points="596.723,879.088 
	598.723,869.338 589.723,851.588 571.723,854.088 551.223,849.588 550.223,862.088 553.31,888.588 551.223,925.088 559.723,937.088 
	587.223,916.588 601.437,897.588 595.648,885.588 "/>
<polygon id="178" fill="none" class="baronnie" stroke="#000000" stroke-width="2" stroke-miterlimit="10" points="635.723,937.088 
	627.223,926.588 618.223,900.088 601.437,897.588 587.223,916.588 559.723,937.088 573.223,965.588 582.223,970.588 
	597.723,960.588 616.223,960.588 "/>
<polygon id="183" fill="none" class="baronnie" stroke="#000000" stroke-width="2" stroke-miterlimit="10" points="616.223,960.588 
	646.223,970.588 669.723,992.588 685.723,980.088 699.223,970.588 705.223,944.588 682.723,933.088 658.223,934.088 
	627.223,926.588 635.723,937.088 "/>
<polygon id="182" fill="none" class="baronnie" stroke="#000000" stroke-width="2" stroke-miterlimit="10" points="705.223,944.588 
	741.723,914.088 730.223,883.588 683.723,896.588 676.973,919.088 658.223,934.088 682.723,933.088 "/>
<polygon id="176" fill="none" class="baronnie" stroke="#000000" stroke-width="2" stroke-miterlimit="10" points="730.223,883.588 
	720.723,874.088 725.473,846.088 697.223,824.588 678.223,835.588 663.223,832.088 660.723,851.588 676.973,872.088 
	683.723,896.588 "/>
<polygon id="175" fill="none" class="baronnie" stroke="#000000" stroke-width="2" stroke-miterlimit="10" points="759.223,799.088 
	754.723,807.588 759.223,823.588 756.973,835.588 725.473,846.088 697.223,824.588 705.223,816.088 705.223,803.088 
	714.723,768.588 748.473,799.588 "/>
<polygon id="180" fill="none" class="baronnie" stroke="#000000" stroke-width="2" stroke-miterlimit="10" points="778.223,779.088 
	774.723,790.588 759.223,799.088 754.723,807.588 759.223,823.588 756.973,835.588 763.723,845.588 780.723,849.588 
	808.223,843.338 817.723,809.338 803.223,799.588 793.223,779.088 "/>
<polygon id="187" fill="none" class="baronnie" stroke="#000000" stroke-width="2" stroke-miterlimit="10" points="808.223,843.338 
	811.723,851.588 822.723,856.088 838.223,849.713 850.223,858.588 832.723,872.088 838.723,888.588 808.223,902.088 
	777.223,883.588 780.723,849.588 "/>
<polygon id="198" fill="none" class="baronnie" stroke="#000000" stroke-width="2" stroke-miterlimit="10" points="838.723,888.588 
	867.223,914.088 867.223,933.088 847.723,942.968 829.723,952.088 804.723,940.838 797.223,934.088 805.723,902.088 "/>
<polygon id="188" fill="none" class="baronnie" stroke="#000000" stroke-width="2" stroke-miterlimit="10" points="804.723,940.838 
	794.223,955.588 767.223,922.588 749.223,920.338 741.723,914.088 730.223,883.588 746.723,888.588 777.223,883.588 
	805.723,902.088 797.223,934.088 "/>
<polygon id="194" fill="none" class="baronnie" stroke="#000000" stroke-width="2" stroke-miterlimit="10" points="630.223,1079.588 
	625.223,1066.588 584.723,1075.588 559.723,1073.088 559.723,1085.088 553.31,1094.088 559.723,1129.088 576.971,1134.588 
	616.223,1119.088 618.223,1103.088 632.473,1087.088 "/>
<polygon id="204" fill="none" class="baronnie" stroke="#000000" stroke-width="2" stroke-miterlimit="10" points="559.723,1129.088 
	569.223,1153.588 576.223,1153.588 595.648,1171.588 584.723,1188.088 605.145,1192.588 632.473,1197.088 632.473,1163.088 
	627.223,1146.088 616.223,1119.088 576.971,1134.588 "/>
<polygon id="212" fill="none" class="baronnie" stroke="#000000" stroke-width="2" stroke-miterlimit="10" points="714.723,1185.088 
	685.223,1168.088 654.723,1168.088 632.473,1163.088 632.473,1197.088 663.223,1206.588 "/>
<polygon id="211" fill="none" class="baronnie" stroke="#000000" stroke-width="2" stroke-miterlimit="10" points="754.723,1147.588 
	730.223,1140.088 720.723,1129.088 690.223,1143.588 682.723,1154.588 685.223,1168.088 714.723,1185.088 728.223,1176.588 
	741.723,1157.088 "/>
<polygon id="202" fill="none" class="baronnie" stroke="#000000" stroke-width="2" stroke-miterlimit="10" points="728.223,1088.088 
	699.973,1085.088 697.223,1073.088 680.473,1080.588 669.723,1080.588 669.723,1116.588 669.723,1125.588 690.223,1143.588 
	720.723,1129.088 "/>
<polygon id="195" fill="none" class="baronnie" stroke="#000000" stroke-width="2" stroke-miterlimit="10" points="669.723,1080.588 
	630.223,1079.588 632.473,1087.088 618.223,1103.088 616.223,1119.088 627.223,1146.088 669.723,1116.588 "/>
<polygon id="203" fill="none" class="baronnie" stroke="#000000" stroke-width="2" stroke-miterlimit="10" points="669.723,1116.588 
	627.223,1146.088 632.473,1163.088 654.723,1168.088 685.223,1168.088 682.723,1154.588 690.223,1143.588 669.723,1125.588 "/>
<polygon id="190" fill="none" class="baronnie" stroke="#000000" stroke-width="2" stroke-miterlimit="10" points="739.223,992.588 
	712.223,981.838 699.223,970.588 685.723,980.088 695.473,988.088 680.473,1033.088 698.973,1046.588 734.723,1037.088 "/>
<polygon id="191" fill="none" class="baronnie" stroke="#000000" stroke-width="2" stroke-miterlimit="10" points="685.723,980.088 
	669.723,992.588 646.223,970.588 648.723,998.088 644.64,1017.088 632.473,1024.088 635.723,1041.588 653.223,1037.088 
	663.508,1037.088 680.473,1033.088 695.473,988.088 "/>
<polygon id="184" fill="none" class="baronnie" stroke="#000000" stroke-width="2" stroke-miterlimit="10" points="646.223,970.588 
	616.223,960.588 597.723,960.588 582.223,970.588 582.223,1008.588 584.723,1028.088 597.723,1033.088 618.223,1030.588 
	632.473,1024.088 644.64,1017.088 648.723,998.088 "/>
<polygon id="192" fill="none" class="baronnie" stroke="#000000" stroke-width="2" stroke-miterlimit="10" points="584.723,1028.088 
	564.045,1050.088 559.723,1073.088 584.723,1075.588 625.223,1066.588 635.723,1041.588 632.473,1024.088 618.223,1030.588 
	597.723,1033.088 "/>
<polygon id="193" fill="none" class="baronnie" stroke="#000000" stroke-width="2" stroke-miterlimit="10" points="698.973,1046.588 
	680.473,1033.088 663.508,1037.088 653.223,1037.088 635.723,1041.588 625.223,1066.588 630.223,1079.588 669.723,1080.588 
	680.473,1080.588 697.223,1073.088 699.973,1056.838 "/>
<polygon id="214" fill="none" class="baronnie" stroke="#000000" stroke-width="2" stroke-miterlimit="10" points="885.223,1071.088 
	867.223,1066.588 842.223,1041.588 820.223,1053.088 817.723,1086.588 832.223,1099.588 846.223,1099.588 862.223,1104.088 "/>
<polygon id="209" fill="none" class="baronnie" stroke="#000000" stroke-width="2" stroke-miterlimit="10" points="820.223,1053.088 
	789.223,1037.088 759.223,1046.588 763.223,1059.088 752.723,1079.588 770.223,1088.588 783.723,1108.338 817.723,1086.588 "/>
<polygon id="201" fill="none" class="baronnie" stroke="#000000" stroke-width="2" stroke-miterlimit="10" points="759.223,1046.588 
	734.723,1037.088 698.973,1046.588 699.973,1056.838 697.223,1073.088 699.973,1085.088 728.223,1088.088 752.723,1079.588 
	763.223,1059.088 "/>
<polygon id="210" fill="none" class="baronnie" stroke="#000000" stroke-width="2" stroke-miterlimit="10" points="752.723,1079.588 
	728.223,1088.088 720.723,1129.088 730.223,1140.088 754.723,1147.588 782.723,1143.588 783.723,1108.338 770.223,1088.588 "/>
<polygon id="215" fill="none" class="baronnie" stroke="#000000" stroke-width="2" stroke-miterlimit="10" points="782.723,1143.588 
	841.223,1129.088 863.723,1104.088 846.223,1099.588 832.223,1099.588 817.723,1086.588 783.723,1108.338 "/>
<polygon id="206" fill="none" class="baronnie" stroke="#000000" stroke-width="2" stroke-miterlimit="10" points="931.223,933.088 
	891.223,908.338 885.223,894.338 856.641,904.621 867.223,914.088 867.223,933.088 867.223,944.588 879.723,964.088 
	910.223,965.588 926.223,960.588 "/>
<polygon id="207" fill="none" class="baronnie" stroke="#000000" stroke-width="2" stroke-miterlimit="10" points="926.223,960.588 
	910.223,965.588 879.723,964.088 867.223,944.588 867.223,933.088 829.723,952.088 847.723,959.588 837.723,998.088 
	851.473,1003.588 880.223,1006.088 911.723,1003.588 920.223,989.588 "/>
<polygon id="213" fill="none" class="baronnie" stroke="#000000" stroke-width="2" stroke-miterlimit="10" points="911.723,1003.588 
	880.223,1006.088 851.473,1003.588 850.223,1024.088 842.223,1041.588 867.223,1066.588 885.223,1071.088 893.932,1049.838 
	897.223,1024.088 "/>
<polygon id="208" fill="none" class="baronnie" stroke="#000000" stroke-width="2" stroke-miterlimit="10" points="837.723,998.088 
	805.723,1008.088 794.723,1003.088 789.223,1037.088 820.223,1053.088 842.223,1041.588 850.223,1024.088 851.473,1003.588 "/>
<polygon id="199" fill="none" class="baronnie" stroke="#000000" stroke-width="2" stroke-miterlimit="10" points="794.223,955.588 
	767.973,974.088 763.223,989.588 794.723,1003.088 805.723,1008.088 837.723,998.088 847.723,959.588 829.723,952.088 
	804.723,940.838 "/>
<polygon id="200" fill="none" class="baronnie" stroke="#000000" stroke-width="2" stroke-miterlimit="10" points="794.723,1003.088 
	763.223,989.588 739.223,992.588 734.723,1037.088 759.223,1046.588 789.223,1037.088 "/>
<polygon id="189" fill="none" class="baronnie" stroke="#000000" stroke-width="2" stroke-miterlimit="10" points="794.223,955.588 
	767.223,922.588 749.223,920.338 741.723,914.088 705.223,944.588 699.223,970.588 712.223,981.838 739.223,992.588 
	763.223,989.588 767.973,974.088 "/>
<polygon id="170" fill="none" class="baronnie" stroke="#000000" stroke-width="2" stroke-miterlimit="10" points="903.223,717.088 
	853.723,700.588 842.223,737.838 829.723,751.838 837.223,764.588 842.223,766.588 860.223,766.588 885.223,752.588 "/>
<polygon id="179" fill="none" class="baronnie" stroke="#000000" stroke-width="2" stroke-miterlimit="10" points="829.723,751.838 
	813.723,758.088 793.223,779.088 803.223,799.588 817.723,809.338 832.223,803.088 850.223,804.588 842.223,787.588 
	842.223,766.588 837.223,764.588 "/>
<polygon id="185" fill="none" class="baronnie" stroke="#000000" stroke-width="2" stroke-miterlimit="10" points="885.223,752.588 
	860.223,766.588 842.223,766.588 842.223,787.588 850.223,804.588 853.223,812.588 876.973,814.338 893.932,814.338 
	898.723,809.338 888.723,796.838 885.223,772.588 "/>
<polygon id="186" fill="none" class="baronnie" stroke="#000000" stroke-width="2" stroke-miterlimit="10" points="850.223,804.588 
	832.223,803.088 817.723,809.338 808.223,843.338 811.723,851.588 822.723,856.088 838.223,849.713 850.223,858.588 
	866.473,846.088 876.973,814.338 853.223,812.588 "/>
<polygon id="197" fill="none" class="baronnie" stroke="#000000" stroke-width="2" stroke-miterlimit="10" points="866.473,846.088 
	850.223,858.588 832.723,872.088 838.723,888.588 856.641,904.621 885.223,894.338 895.223,875.354 882.723,863.588 
	866.473,858.588 "/>
<polygon id="205" fill="none" class="baronnie" stroke="#000000" stroke-width="2" stroke-miterlimit="10" points="931.223,933.088 
	944.723,902.088 944.723,886.088 937.973,870.088 926.223,875.354 895.223,875.354 885.223,894.338 891.223,908.338 "/>
<polygon id="196" fill="none" class="baronnie" stroke="#000000" stroke-width="2" stroke-miterlimit="10" points="937.973,870.088 
	918.723,835.588 898.723,809.338 893.932,814.338 876.973,814.338 866.473,846.088 866.473,858.588 882.723,863.588 
	895.223,875.354 926.223,875.354 "/>
<polygon id="171" fill="none" class="baronnie" stroke="#000000" stroke-width="2" stroke-miterlimit="10" points="699.223,732.588 
	705.223,730.088 718.223,742.088 739.223,748.588 763.223,739.338 777.223,736.088 777.734,758.088 778.223,779.088 
	774.723,790.588 759.223,799.088 748.473,799.588 714.723,768.588 699.223,758.088 "/>
<polygon id="169" fill="none" class="baronnie" stroke="#000000" stroke-width="2" stroke-miterlimit="10" points="853.723,700.588 
	836.223,703.088 808.223,707.588 808.223,714.588 793.223,736.088 777.223,736.088 778.223,779.088 793.223,779.088 
	813.723,758.088 829.723,751.838 842.223,737.838 "/>
<polygon id="168" fill="none" class="baronnie" stroke="#000000" stroke-width="2" stroke-miterlimit="10" points="903.223,717.088 
	931.223,679.588 908.223,679.588 890.223,650.088 866.473,660.088 867.223,680.088 853.723,700.588 "/>
<polygon id="165" fill="none" class="baronnie" stroke="#000000" stroke-width="2" stroke-miterlimit="10" points="866.473,660.088 
	853.723,656.088 835.223,637.474 823.723,650.088 805.723,656.088 802.723,689.588 808.223,707.588 853.723,700.588 
	867.223,680.088 "/>
<polygon id="167" fill="none" class="baronnie" stroke="#000000" stroke-width="2" stroke-miterlimit="10" points="931.223,679.588 
	941.723,663.338 941.723,623.088 893.932,623.088 890.223,650.088 908.223,679.588 "/>
<polygon id="163" fill="none" class="baronnie" stroke="#000000" stroke-width="2" stroke-miterlimit="10" points="941.723,623.088 
	941.723,586.588 914.973,569.588 895.223,565.088 880.723,584.588 876.973,599.588 885.223,615.588 893.932,623.088 "/>
<polygon id="158" fill="none" class="baronnie" stroke="#000000" stroke-width="2" stroke-miterlimit="10" points="941.723,586.588 
	941.723,558.713 929.223,528.588 903.223,512.588 887.223,526.588 887.223,555.088 882.723,562.588 895.223,565.088 
	914.973,569.588 "/>
<polygon id="154" fill="none" class="baronnie" stroke="#000000" stroke-width="2" stroke-miterlimit="10" points="882.723,562.588 
	887.223,555.088 887.223,526.588 852.223,510.088 836.223,510.088 811.387,522.94 824.223,544.588 850.723,560.088 "/>
<polygon id="155" fill="none" class="baronnie" stroke="#000000" stroke-width="2" stroke-miterlimit="10" points="829.723,579.113 
	850.723,560.088 824.223,544.588 811.387,522.94 800.473,528.588 805.723,536.338 793.223,552.588 767.973,558.713 756.723,552.588 
	771.723,592.338 780.723,601.338 800.723,584.588 802.723,575.588 "/>
<polygon id="159" fill="none" class="baronnie" stroke="#000000" stroke-width="2" stroke-miterlimit="10" points="800.723,584.588 
	802.723,607.088 842.223,620.088 856.641,609.088 876.973,599.588 880.723,584.588 893.932,564.83 882.723,562.588 850.723,560.088 
	829.723,579.113 802.723,575.588 "/>
<polygon id="164" fill="none" class="baronnie" stroke="#000000" stroke-width="2" stroke-miterlimit="10" points="842.223,620.088 
	835.223,637.474 853.723,656.088 866.473,660.088 890.223,650.088 893.932,623.088 885.223,615.588 876.973,599.588 
	856.641,609.088 "/>
<polygon id="160" fill="none" class="baronnie" stroke="#000000" stroke-width="2" stroke-miterlimit="10" points="805.723,656.088 
	778.223,637.474 773.223,623.088 783.223,615.588 780.723,601.338 800.723,584.588 802.723,607.088 842.223,620.088 
	835.223,637.474 823.723,650.088 "/>
<polygon id="166" fill="none" class="baronnie" stroke="#000000" stroke-width="2" stroke-miterlimit="10" points="808.223,707.588 
	786.223,703.088 771.223,686.088 745.723,679.588 730.223,675.588 718.223,686.088 699.973,691.588 708.723,709.588 
	712.223,720.088 705.223,730.088 718.223,742.088 739.223,748.588 763.223,739.338 777.223,736.088 793.223,736.088 
	808.223,714.588 "/>
<polygon id="161" fill="none" class="baronnie" stroke="#000000" stroke-width="2" stroke-miterlimit="10" points="774.787,627.588 
	756.723,632.088 759.223,642.588 746.223,669.588 745.723,679.588 771.223,686.088 786.223,703.088 808.223,707.588 
	802.723,689.588 805.723,656.088 778.223,637.474 "/>
<polygon id="162" fill="none" class="baronnie" stroke="#000000" stroke-width="2" stroke-miterlimit="10" points="756.723,632.088 
	745.723,632.088 728.223,620.338 712.223,634.088 689.473,647.088 678.223,670.088 692.223,688.588 699.973,691.588 
	718.223,686.088 730.223,675.588 745.723,679.588 746.223,669.588 759.223,642.588 "/>
<polygon id="157" fill="none" class="baronnie" stroke="#000000" stroke-width="2" stroke-miterlimit="10" points="678.223,670.088 
	673.973,642.588 683.223,589.088 712.223,589.088 718.223,613.088 728.223,620.338 712.223,634.088 689.473,647.088 "/>
<polygon id="156" fill="none" class="baronnie" stroke="#000000" stroke-width="2" stroke-miterlimit="10" points="745.723,632.088 
	756.723,632.088 774.787,627.588 773.223,623.088 783.223,615.588 780.723,601.338 771.723,592.338 756.723,552.588 
	730.223,548.588 714.723,552.588 712.223,567.088 714.723,579.113 712.223,589.088 718.223,613.088 728.223,620.338 "/>
<polygon id="152" fill="none" class="baronnie" stroke="#000000" stroke-width="2" stroke-miterlimit="10" points="764.723,512.588 
	754.723,519.355 725.223,519.355 718.723,528.588 728.223,548.588 756.723,552.588 767.973,558.713 793.223,552.588 
	805.723,536.338 800.473,528.588 797.223,506.338 784.223,506.338 "/>
<polygon id="153" fill="none" class="baronnie" stroke="#000000" stroke-width="2" stroke-miterlimit="10" points="718.723,528.588 
	705.223,537.588 676.973,535.588 674.973,558.713 683.223,589.088 712.223,589.088 714.723,579.113 712.223,567.088 
	714.723,552.588 728.223,548.588 "/>
<polygon id="177" fill="none" class="baronnie" stroke="#000000" stroke-width="2" stroke-miterlimit="10" points="660.723,851.588 
	676.973,872.088 683.723,896.588 676.973,919.088 658.223,934.088 627.223,926.588 618.223,900.088 601.437,897.588 
	595.648,885.588 596.723,879.088 632.473,872.088 "/>
<polygon id="181" fill="none" class="baronnie" stroke="#000000" stroke-width="2" stroke-miterlimit="10" points="780.723,849.588 
	763.723,845.588 756.973,835.588 726.598,845.713 720.723,874.088 730.223,883.588 746.723,888.588 777.223,883.588 "/>
</svg>
